User Type,Username,Date,Text
[T],Tyr3ll,2012-06-24T15:42Z,"General :

Complete name                  : Main_MovieThe_Thing.(1982).(J.Carpenter).BrDrip@HD.1080p@(WMV-(VC1)[)(]Dts-HD MA)-DE-FR-IT-US+MultiSub.mkv

Format                         : Matroska
Format version                 : Version 2
File size                      : 18.5 GiB
Duration                       : 1h 48mn
Overall bit rate mode          : Variable
Overall bit rate               : 24.4 Mbps
Movie name                     : THING_G51.Title0.BlurayRip
Encoded date                   : UTC 2012-06-10 14:56:19
Writing application            : DVDFab
Writing library                : libebml v0.7.8 + libmatroska v0.8.1

Video
ID                             : 1
Format                         : VC-1
Format profile                 : Advanced@L3
Codec ID                       : WVC1
Codec ID/Hint                  : Microsoft
Duration                       : 1h 48mn
Bit rate                       : 19.1 Mbps
Width                          : 1 920 pixels
Height                         : 1 080 pixels
Display aspect ratio           : 16:9
Frame rate                     : 23.976 fps
Chroma subsampling             : 4:2:0
Bit depth                      : 8 bits
Scan type                      : Progressive
Compression mode               : Lossy
Bits/(Pixel*Frame)             : 0.385
Stream size                    : 14.5 GiB (78%)
Default                        : Yes
Forced                         : No

Audio #1
ID                             : 2
Format                         : DTS
Format/Info                    : Digital Theater Systems
Format profile                 : MA / Core
Codec ID                       : A_DTS
Duration                       : 1h 48mn
Bit rate mode                  : Variable
Bit rate                       : 2 527 Kbps / 1 510 Kbps
Channel(s)                     : 6 channels
Channel positions              : Front: L C R, Side: L R, LFE
Sampling rate                  : 48.0 KHz
Bit depth                      : 24 bits
Compression mode               : Lossless / Lossy
Language                       : English
Default                        : Yes
Forced                         : No

Audio #2
ID                             : 3
Format                         : DTS
Format/Info                    : Digital Theater Systems
Codec ID                       : A_DTS
Duration                       : 1h 48mn
Bit rate mode                  : Constant
Bit rate                       : 755 Kbps
Channel(s)                     : 6 channels
Channel positions              : Front: L C R, Side: L R, LFE
Sampling rate                  : 48.0 KHz
Bit depth                      : 24 bits
Compression mode               : Lossy
Stream size                    : 587 MiB (3%)
Language                       : French
Default                        : No
Forced                         : No

Audio #3
ID                             : 4
Format                         : DTS
Format/Info                    : Digital Theater Systems
Codec ID                       : A_DTS
Duration                       : 1h 48mn
Bit rate mode                  : Constant
Bit rate                       : 755 Kbps
Channel(s)                     : 6 channels
Channel positions              : Front: L C R, Side: L R, LFE
Sampling rate                  : 48.0 KHz
Bit depth                      : 24 bits
Compression mode               : Lossy
Stream size                    : 587 MiB (3%)
Language                       : Italian
Default                        : No
Forced                         : No

Audio #4
ID                             : 5
Format                         : DTS
Format/Info                    : Digital Theater Systems
Codec ID                       : A_DTS
Duration                       : 1h 48mn
Bit rate mode                  : Constant
Bit rate                       : 755 Kbps
Channel(s)                     : 6 channels
Channel positions              : Front: L C R, Side: L R, LFE
Sampling rate                  : 48.0 KHz
Bit depth                      : 24 bits
Compression mode               : Lossy
Stream size                    : 587 MiB (3%)
Langua"
[T],Tyr3ll,2012-06-24T15:52Z,"Final thoughts :
Excellent release with very good quality between video and sound.
Btw :
check your tracker list and remove torrentbay if you see it as unauthorized connection if necessary.
Few screenshots can be found right here :
http://tyr3ll.minus.com/tyr3ll/uploads
(upload in progress...)

Have a good film and seed asap as long as you can,please !
Note :
Not for sale,resale or rental as well as for any online streaming by any money profit.
Please,respect this so.
Ty for your understanding
cu later"
[T],Tyr3ll,2012-06-24T16:49Z,"certain subtitles may not be visible in certain cases with certain dvd players.
(portuguese and 2-3 others...)
possible bug again :(
we are really sorry again about this recurrent problem so."
